<?xml version="1.0" encoding="UTF-8" standalone="no"?>
<!-- Generator: Adobe Illustrator 15.1.0, SVG Export Plug-In . SVG Version: 6.00 Build 0)  -->

<svg
   xmlns:dc="http://purl.org/dc/elements/1.1/"
   xmlns:cc="http://creativecommons.org/ns#"
   xmlns:rdf="http://www.w3.org/1999/02/22-rdf-syntax-ns#"
   xmlns:svg="http://www.w3.org/2000/svg"
   xmlns="http://www.w3.org/2000/svg"
   xmlns:sodipodi="http://sodipodi.sourceforge.net/DTD/sodipodi-0.dtd"
   xmlns:inkscape="http://www.inkscape.org/namespaces/inkscape"
   version="1.1"
   x="0px"
   y="0px"
   width="32px"
   height="32px"
   viewBox="0 0 32 32"
   style="enable-background:new 0 0 32 32;"
   xml:space="preserve"
   id="svg2"
   inkscape:version="0.48.2 r9819"
   sodipodi:docname="calendar_alt_fill.svg"><metadata
   id="metadata18"><rdf:RDF><cc:Work
       rdf:about=""><dc:format>image/svg+xml</dc:format><dc:type
         rdf:resource="http://purl.org/dc/dcmitype/StillImage" /></cc:Work></rdf:RDF></metadata><defs
   id="defs16" /><sodipodi:namedview
   pagecolor="#ffffff"
   bordercolor="#666666"
   borderopacity="1"
   objecttolerance="10"
   gridtolerance="10"
   guidetolerance="10"
   inkscape:pageopacity="0"
   inkscape:pageshadow="2"
   inkscape:window-width="1680"
   inkscape:window-height="996"
   id="namedview14"
   showgrid="false"
   inkscape:zoom="7.375"
   inkscape:cx="-7.8644068"
   inkscape:cy="16"
   inkscape:window-x="0"
   inkscape:window-y="26"
   inkscape:window-maximized="1"
   inkscape:current-layer="calendar_x5F_alt_x5F_fill" />
<g
   id="Layer_1">
</g>
<g
   id="calendar_x5F_alt_x5F_fill">
	<g
   id="g6"
   style="stroke:none;stroke-opacity:1;fill:#363636;fill-opacity:1">
		<path
   style="fill:#363636;stroke:none;stroke-opacity:1;fill-opacity:1"
   d="M26,4v2.047c0,2.211-1.789,4-4,4s-4-1.789-4-4V4h-4v2.047c0,2.211-1.789,4-4,4s-4-1.789-4-4V4H0v28    h32V4H26z M10,28H6v-4h4V28z M10,20H6v-4h4V20z M18,28h-4v-4h4V28z M18,20.008h-4v-4h4V20.008z M22,28v-4h4L22,28z M26,20h-4v-4h4    V20z"
   id="path8" />
		<path
   style="fill:#363636;stroke:none;stroke-opacity:1;fill-opacity:1"
   d="M8,6V2c0-1.105,0.895-2,2-2s2,0.895,2,2v4c0,1.105-0.895,2-2,2S8,7.105,8,6z"
   id="path10" />
		<path
   style="fill:#363636;stroke:none;stroke-opacity:1;fill-opacity:1"
   d="M20,6V2c0-1.105,0.895-2,2-2s2,0.895,2,2v4c0,1.105-0.895,2-2,2S20,7.105,20,6z"
   id="path12" />
	</g>
</g>
</svg>