<?xml version="1.0" encoding="UTF-8" standalone="no"?>
<!-- Generator: Adobe Illustrator 15.1.0, SVG Export Plug-In . SVG Version: 6.00 Build 0)  -->

<svg
   xmlns:dc="http://purl.org/dc/elements/1.1/"
   xmlns:cc="http://creativecommons.org/ns#"
   xmlns:rdf="http://www.w3.org/1999/02/22-rdf-syntax-ns#"
   xmlns:svg="http://www.w3.org/2000/svg"
   xmlns="http://www.w3.org/2000/svg"
   xmlns:sodipodi="http://sodipodi.sourceforge.net/DTD/sodipodi-0.dtd"
   xmlns:inkscape="http://www.inkscape.org/namespaces/inkscape"
   version="1.1"
   x="0px"
   y="0px"
   width="32px"
   height="32.001px"
   viewBox="0 0 32 32.001"
   style="enable-background:new 0 0 32 32.001;"
   xml:space="preserve"
   id="svg2"
   inkscape:version="0.48.2 r9819"
   sodipodi:docname="more_less.svg"
   inkscape:export-filename="/home/ruf/Public/otokou/website/web/images/more_less.png"
   inkscape:export-xdpi="33.75"
   inkscape:export-ydpi="33.75"><metadata
   id="metadata16"><rdf:RDF><cc:Work
       rdf:about=""><dc:format>image/svg+xml</dc:format><dc:type
         rdf:resource="http://purl.org/dc/dcmitype/StillImage" /><dc:title></dc:title></cc:Work></rdf:RDF></metadata><defs
   id="defs14" /><sodipodi:namedview
   pagecolor="#ffffff"
   bordercolor="#666666"
   borderopacity="1"
   objecttolerance="10"
   gridtolerance="10"
   guidetolerance="10"
   inkscape:pageopacity="0"
   inkscape:pageshadow="2"
   inkscape:window-width="1680"
   inkscape:window-height="996"
   id="namedview12"
   showgrid="false"
   inkscape:zoom="7.3747697"
   inkscape:cx="-7.8651521"
   inkscape:cy="16.0005"
   inkscape:window-x="0"
   inkscape:window-y="26"
   inkscape:window-maximized="1"
   inkscape:current-layer="loop" />
<g
   id="Layer_1">
</g>
<g
   id="loop">
	<g
   id="g6"
   style="fill:#222222;fill-opacity:1">
		<path
   style="fill:#222222;fill-opacity:1"
   d="M9.805,3.677L4,9.478V3.841H0v12h12v-4H7.299l5.334-5.336c3.389-3.391,9.309-3.391,12.703,0    l2.828-2.828C23.262-1.229,14.707-1.222,9.805,3.677z"
   id="path8" />
		<path
   style="fill:#222222;fill-opacity:1"
   d="M20,16.036v4h4.703l-5.336,5.336c-3.389,3.395-9.309,3.395-12.701,0l-2.83,2.824    c2.451,2.453,5.715,3.805,9.184,3.805c3.471,0,6.727-1.352,9.176-3.805L28,22.396v5.637h4V16.036H20z"
   id="path10" />
	</g>
</g>
</svg>