<?xml version="1.0" encoding="UTF-8" standalone="no"?>
<!-- Generator: Adobe Illustrator 15.1.0, SVG Export Plug-In . SVG Version: 6.00 Build 0)  -->

<svg
   xmlns:dc="http://purl.org/dc/elements/1.1/"
   xmlns:cc="http://creativecommons.org/ns#"
   xmlns:rdf="http://www.w3.org/1999/02/22-rdf-syntax-ns#"
   xmlns:svg="http://www.w3.org/2000/svg"
   xmlns="http://www.w3.org/2000/svg"
   xmlns:sodipodi="http://sodipodi.sourceforge.net/DTD/sodipodi-0.dtd"
   xmlns:inkscape="http://www.inkscape.org/namespaces/inkscape"
   version="1.1"
   x="0px"
   y="0px"
   width="32px"
   height="32.002px"
   viewBox="0 0 32 32.002"
   style="enable-background:new 0 0 32 32.002;"
   xml:space="preserve"
   id="svg2"
   inkscape:version="0.48.2 r9819"
   sodipodi:docname="undo.svg"><metadata
   id="metadata16"><rdf:RDF><cc:Work
       rdf:about=""><dc:format>image/svg+xml</dc:format><dc:type
         rdf:resource="http://purl.org/dc/dcmitype/StillImage" /><dc:title></dc:title></cc:Work></rdf:RDF></metadata><defs
   id="defs14" /><sodipodi:namedview
   pagecolor="#ffffff"
   bordercolor="#666666"
   borderopacity="1"
   objecttolerance="10"
   gridtolerance="10"
   guidetolerance="10"
   inkscape:pageopacity="0"
   inkscape:pageshadow="2"
   inkscape:window-width="1680"
   inkscape:window-height="996"
   id="namedview12"
   showgrid="false"
   inkscape:zoom="7.3745393"
   inkscape:cx="-7.8658975"
   inkscape:cy="16.000999"
   inkscape:window-x="0"
   inkscape:window-y="26"
   inkscape:window-maximized="1"
   inkscape:current-layer="svg2" />
<g
   id="Layer_1">
</g>
<g
   id="undo"
   style="fill:#363636;fill-opacity:1"
   inkscape:export-filename="/home/ruf/Public/otokou/website/web/images/icons/back.png"
   inkscape:export-xdpi="45"
   inkscape:export-ydpi="45">
	<g
   id="g6"
   style="fill:#363636;fill-opacity:1">
		<path
   style="fill:#363636;fill-opacity:1"
   d="M28.156,3.719c-4.957-4.957-13.605-4.961-18.559,0L4,9.32V4H0v12.008h12v-4.004H6.977l5.453-5.453    c3.445-3.449,9.453-3.449,12.898,0.004C27.051,8.277,28,10.566,28,13.004c0,2.441-0.949,4.73-2.672,6.457l-3.016,3.014    l2.828,2.828l3.016-3.008C30.633,19.809,32,16.512,32,13.004S30.633,6.199,28.156,3.719z"
   id="path8" />
		
			<rect
   x="16.448"
   y="27.172"
   transform="matrix(0.7066 0.7076 -0.7076 0.7066 26.0545 -4.4961)"
   style="fill:#363636;fill-opacity:1"
   width="4.002"
   height="4"
   id="rect10" />
	</g>
</g>
</svg>